<?xml version="1.0" standalone="no"?>
<!DOCTYPE svg PUBLIC "-//W3C//DTD SVG 20010904//EN"
 "http://www.w3.org/TR/2001/REC-SVG-20010904/DTD/svg10.dtd">
<svg version="1.0" xmlns="http://www.w3.org/2000/svg"
 width="338.000000pt" height="237.000000pt" viewBox="0 0 338.000000 237.000000"
 preserveAspectRatio="xMidYMid meet">

<g transform="translate(0.000000,237.000000) scale(0.100000,-0.100000)"
fill="#000000" stroke="none">
<path d="M1520 2315 c-650 -102 -1081 -732 -941 -1374 58 -264 213 -502 436
-670 95 -72 269 -155 390 -188 92 -24 116 -27 285 -27 171 0 193 2 285 28 198
54 371 154 515 296 243 241 366 577 332 908 -27 270 -128 494 -309 682 -104
109 -187 170 -318 235 -222 109 -446 146 -675 110z m270 -844 c70 -27 130 -78
165 -142 27 -49 30 -63 30 -144 0 -73 -4 -98 -22 -131 -36 -67 -72 -103 -137
-136 -52 -27 -72 -31 -137 -31 -57 -1 -86 5 -120 21 -147 71 -214 210 -174
360 16 58 26 75 80 129 46 45 74 65 111 76 68 22 145 21 204 -2z m970 -579
c-105 -377 -403 -674 -785 -779 -93 -26 -113 -28 -285 -28 -171 0 -193 2 -284
28 -387 107 -678 396 -786 780 l-19 67 380 0 380 0 49 -49 c58 -58 132 -97
214 -112 118 -21 263 28 346 117 l40 44 378 2 c207 2 380 2 384 0 4 -1 -2 -33
-12 -70z"/>
<path d="M1631 1409 c-56 -17 -119 -67 -143 -112 -33 -64 -31 -158 4 -218 26
-44 80 -89 126 -103 12 -4 46 -7 76 -7 122 0 216 96 216 221 0 59 -16 102 -55
148 -51 61 -151 93 -224 71z m112 -30 c152 -42 187 -254 57 -348 -68 -49 -153
-49 -225 0 -100 69 -112 212 -26 298 53 53 121 71 194 50z"/>
</g>
</svg>
